<?xml version="1.0" encoding="UTF-8"?>
<svg id="Layer_1" xmlns="http://www.w3.org/2000/svg" version="1.1" viewBox="0 0 223.36 63.58">
  <!-- Generator: Adobe Illustrator 29.8.2, SVG Export Plug-In . SVG Version: 2.1.1 Build 3)  -->
  <defs>
    <style>
      .st0 {
        fill: #094584;
      }
    </style>
  </defs>
  <g>
    <path class="st0" d="M53.96,10.3h1.53v12.11h-1.53v-12.11Z"/>
    <path class="st0" d="M58.05,15.47c0-.64-.05-1.28-.07-1.91h1.41l.05,1.32h.04c.47-1.01,1.21-1.44,2.24-1.44,1.54,0,2.58.88,2.58,2.83v6.14h-1.46v-5.71c0-1.41-.52-2.01-1.46-2.01-1.15,0-1.87.8-1.87,2.4v5.33h-1.46v-6.94Z"/>
    <path class="st0" d="M70.49,22.3c-.35.12-.83.23-1.23.23-1.34,0-2.05-.54-2.05-2.1v-5.69h-1.41v-1.18h1.41v-1.8l1.46-.43v2.24h1.82v1.18h-1.82v5.22c0,1.01.26,1.39.92,1.39.37,0,.63-.1.9-.23v1.18Z"/>
    <path class="st0" d="M72.99,18.42c0,2.05.8,3,2.41,3,.73,0,1.53-.36,2.03-.73l.07,1.32c-.69.33-1.6.52-2.48.52-2.34,0-3.56-1.77-3.56-4.55s1.21-4.55,3.42-4.55c1.99,0,3.11,1.6,3.11,4.2v.78h-5ZM76.52,17.31c0-1.84-.57-2.76-1.73-2.76-.94,0-1.77.69-1.8,2.76h3.54Z"/>
    <path class="st0" d="M79.77,15.47c0-.64-.05-1.28-.07-1.91h1.41l.05,1.39h.04c.47-1.08,1.21-1.51,2.52-1.51v1.44c-.17-.03-.36-.05-.56-.05-1.13,0-1.93.97-1.93,2.9v4.68h-1.46v-6.94Z"/>
    <path class="st0" d="M85.07,15.47c0-.64-.05-1.28-.07-1.91h1.41l.05,1.32h.03c.47-1.01,1.21-1.44,2.24-1.44,1.54,0,2.59.88,2.59,2.83v6.14h-1.46v-5.71c0-1.41-.52-2.01-1.46-2.01-1.14,0-1.87.8-1.87,2.4v5.33h-1.46v-6.94Z"/>
    <path class="st0" d="M93.95,14.17c.73-.47,1.63-.73,2.5-.73,1.3,0,2.08.56,2.36.83.38.38.76.92.76,2.17v4.62c0,.52.03,1.04.07,1.35h-1.32l-.09-1.2h-.03c-.4.68-1.13,1.32-2.48,1.32-1.46,0-2.55-.85-2.55-2.55s1.13-2.98,4.16-2.98h.85v-.4c0-.66-.05-1.04-.33-1.42-.3-.4-.87-.56-1.48-.56-.9,0-1.77.36-2.27.92l-.16-1.37ZM98.19,18.07c-.26-.03-.63-.03-1.02-.03-1.72,0-2.53.81-2.53,1.84,0,.94.49,1.55,1.49,1.55,1.27,0,2.06-1.02,2.06-2.24v-1.11Z"/>
    <path class="st0" d="M105.72,22.3c-.35.12-.83.23-1.23.23-1.34,0-2.05-.54-2.05-2.1v-5.69h-1.41v-1.18h1.41v-1.8l1.46-.43v2.24h1.82v1.18h-1.82v5.22c0,1.01.26,1.39.92,1.39.36,0,.63-.1.9-.23v1.18Z"/>
    <path class="st0" d="M108.79,9.92v1.73h-1.6v-1.73h1.6ZM107.26,13.56h1.46v8.85h-1.46v-8.85Z"/>
    <path class="st0" d="M114.27,13.44c2.34,0,3.56,1.77,3.56,4.55s-1.21,4.55-3.56,4.55-3.56-1.77-3.56-4.55,1.21-4.55,3.56-4.55ZM114.27,21.35c1.39,0,2.03-1.14,2.03-3.37s-.64-3.37-2.03-3.37-2.03,1.15-2.03,3.37.64,3.37,2.03,3.37Z"/>
    <path class="st0" d="M119.68,15.47c0-.64-.05-1.28-.07-1.91h1.41l.05,1.32h.03c.47-1.01,1.21-1.44,2.24-1.44,1.54,0,2.59.88,2.59,2.83v6.14h-1.46v-5.71c0-1.41-.52-2.01-1.46-2.01-1.14,0-1.87.8-1.87,2.4v5.33h-1.46v-6.94Z"/>
    <path class="st0" d="M128.56,14.17c.73-.47,1.63-.73,2.5-.73,1.3,0,2.08.56,2.36.83.38.38.76.92.76,2.17v4.62c0,.52.03,1.04.07,1.35h-1.32l-.09-1.2h-.03c-.4.68-1.13,1.32-2.48,1.32-1.46,0-2.55-.85-2.55-2.55s1.13-2.98,4.16-2.98h.85v-.4c0-.66-.05-1.04-.33-1.42-.3-.4-.87-.56-1.48-.56-.9,0-1.77.36-2.27.92l-.16-1.37ZM132.79,18.07c-.26-.03-.63-.03-1.02-.03-1.72,0-2.53.81-2.53,1.84,0,.94.49,1.55,1.49,1.55,1.27,0,2.06-1.02,2.06-2.24v-1.11Z"/>
    <path class="st0" d="M136.55,9.39h1.46v13.01h-1.46v-13.01Z"/>
    <path class="st0" d="M145.05,10.3h1.53v12.11h-1.53v-12.11Z"/>
    <path class="st0" d="M149.15,15.47c0-.64-.05-1.28-.07-1.91h1.41l.05,1.32h.04c.47-1.01,1.21-1.44,2.24-1.44,1.54,0,2.58.88,2.58,2.83v6.14h-1.46v-5.71c0-1.41-.52-2.01-1.46-2.01-1.15,0-1.87.8-1.87,2.4v5.33h-1.46v-6.94Z"/>
    <path class="st0" d="M157.3,20.69c.66.4,1.35.66,2.08.66,1.11,0,1.68-.57,1.68-1.25,0-.61-.31-1.02-1.13-1.39l-.97-.43c-1.27-.57-1.73-1.15-1.73-2.27,0-1.46,1.13-2.57,2.84-2.57.73,0,1.37.12,1.88.31l-.07,1.25c-.45-.21-1.08-.38-1.74-.38-.95,0-1.46.52-1.46,1.21s.52,1.11,1.49,1.49l.52.21c1.08.43,1.75,1.16,1.75,2.26,0,1.53-.82,2.74-2.85,2.74-.92,0-1.75-.19-2.39-.52l.09-1.32Z"/>
    <path class="st0" d="M168.18,22.3c-.35.12-.83.23-1.23.23-1.34,0-2.05-.54-2.05-2.1v-5.69h-1.41v-1.18h1.41v-1.8l1.46-.43v2.24h1.82v1.18h-1.82v5.22c0,1.01.26,1.39.92,1.39.36,0,.62-.1.9-.23v1.18Z"/>
    <path class="st0" d="M171.24,9.92v1.73h-1.6v-1.73h1.6ZM169.72,13.56h1.46v8.85h-1.46v-8.85Z"/>
    <path class="st0" d="M177.51,22.3c-.35.12-.83.23-1.23.23-1.34,0-2.05-.54-2.05-2.1v-5.69h-1.41v-1.18h1.41v-1.8l1.46-.43v2.24h1.82v1.18h-1.82v5.22c0,1.01.26,1.39.92,1.39.36,0,.62-.1.9-.23v1.18Z"/>
    <path class="st0" d="M185.16,20.5c0,.64.05,1.28.07,1.91h-1.41l-.05-1.32h-.04c-.47,1.01-1.21,1.44-2.24,1.44-1.54,0-2.58-.89-2.58-2.83v-6.14h1.46v5.71c0,1.41.52,2.01,1.46,2.01,1.14,0,1.87-.8,1.87-2.39v-5.33h1.46v6.94Z"/>
    <path class="st0" d="M191.35,22.3c-.35.12-.83.23-1.23.23-1.34,0-2.05-.54-2.05-2.1v-5.69h-1.41v-1.18h1.41v-1.8l1.46-.43v2.24h1.82v1.18h-1.82v5.22c0,1.01.26,1.39.92,1.39.36,0,.63-.1.9-.23v1.18Z"/>
    <path class="st0" d="M193.85,18.42c0,2.05.8,3,2.41,3,.73,0,1.53-.36,2.03-.73l.07,1.32c-.69.33-1.6.52-2.48.52-2.34,0-3.56-1.77-3.56-4.55s1.21-4.55,3.42-4.55c1.99,0,3.11,1.6,3.11,4.2v.78h-5ZM197.39,17.31c0-1.84-.57-2.76-1.74-2.76-.94,0-1.77.69-1.8,2.76h3.54Z"/>
    <path class="st0" d="M205.59,14.74h-1.41v-1.18h1.41v-1.98c0-1.44.66-2.39,2.2-2.39.4,0,.82.05,1.15.14v1.25c-.17-.14-.49-.21-.83-.21-.82,0-1.06.45-1.06,1.34v1.86h1.6v1.18h-1.6v7.67h-1.46v-7.67Z"/>
    <path class="st0" d="M213.08,13.44c2.34,0,3.56,1.77,3.56,4.55s-1.21,4.55-3.56,4.55-3.56-1.77-3.56-4.55,1.21-4.55,3.56-4.55ZM213.08,21.35c1.39,0,2.03-1.14,2.03-3.37s-.64-3.37-2.03-3.37-2.03,1.15-2.03,3.37.64,3.37,2.03,3.37Z"/>
    <path class="st0" d="M218.49,15.47c0-.64-.05-1.28-.07-1.91h1.41l.05,1.39h.04c.47-1.08,1.21-1.51,2.52-1.51v1.44c-.17-.03-.37-.05-.56-.05-1.13,0-1.93.97-1.93,2.9v4.68h-1.46v-6.94Z"/>
  </g>
  <g>
    <path class="st0" d="M58.68,28.97l3.96,12.11h-1.6l-.97-3.16h-4.62l-.97,3.16h-1.53l4.06-12.11h1.67ZM59.67,36.61l-1.86-6.04h-.03l-1.91,6.04h3.8Z"/>
    <path class="st0" d="M63.87,33.87c0-.54-.05-1.09-.07-1.63h1.41l.05,1.3h.03c.38-.69,1.04-1.42,2.33-1.42,1.82,0,3.05,1.49,3.05,4.55s-1.23,4.55-3.05,4.55c-1.01,0-1.66-.4-2.26-1.34h-.03v4.96h-1.46v-10.97ZM67.27,40.03c1.34,0,1.94-1.14,1.94-3.37s-.61-3.37-1.94-3.37-1.94,1.15-1.94,3.37.61,3.37,1.94,3.37Z"/>
    <path class="st0" d="M72.38,33.87c0-.54-.05-1.09-.07-1.63h1.41l.05,1.3h.03c.38-.69,1.04-1.42,2.33-1.42,1.82,0,3.05,1.49,3.05,4.55s-1.23,4.55-3.05,4.55c-1.01,0-1.66-.4-2.26-1.34h-.03v4.96h-1.46v-10.97ZM75.79,40.03c1.34,0,1.94-1.14,1.94-3.37s-.61-3.37-1.94-3.37-1.94,1.15-1.94,3.37.61,3.37,1.94,3.37Z"/>
    <path class="st0" d="M81.18,28.07h1.46v13.01h-1.46v-13.01Z"/>
    <path class="st0" d="M86.73,28.59v1.74h-1.6v-1.74h1.6ZM85.2,32.23h1.46v8.85h-1.46v-8.85Z"/>
    <path class="st0" d="M90.18,37.09c0,2.05.8,3,2.41,3,.73,0,1.53-.36,2.03-.73l.07,1.32c-.69.33-1.6.52-2.48.52-2.34,0-3.56-1.77-3.56-4.55s1.21-4.55,3.42-4.55c1.99,0,3.11,1.6,3.11,4.2v.78h-5ZM93.72,35.98c0-1.84-.57-2.76-1.73-2.76-.94,0-1.77.69-1.8,2.76h3.54Z"/>
    <path class="st0" d="M103.33,39.45c0,.54.05,1.09.07,1.63h-1.41l-.05-1.3h-.04c-.38.69-1.04,1.42-2.33,1.42-1.82,0-3.05-1.49-3.05-4.55s1.23-4.55,3.05-4.55c1.01,0,1.67.4,2.26,1.34h.03v-5.38h1.46v11.38ZM99.93,33.29c-1.34,0-1.94,1.15-1.94,3.37s.61,3.37,1.94,3.37,1.94-1.14,1.94-3.37-.61-3.37-1.94-3.37Z"/>
    <path class="st0" d="M115.09,30.72c-.57-.35-1.32-.56-2.06-.56-1.14,0-1.89.78-1.89,1.8,0,.78.31,1.27,2.05,2.27,1.87,1.08,2.5,2.13,2.5,3.52,0,1.93-1.2,3.44-3.52,3.44-.97,0-1.89-.21-2.53-.52v-1.58c.69.42,1.6.78,2.31.78,1.37,0,2.15-.92,2.15-1.91,0-.94-.24-1.48-1.87-2.46-2.19-1.32-2.67-2.06-2.67-3.63,0-1.99,1.53-3.04,3.37-3.04.8,0,1.65.17,2.19.4v1.48Z"/>
    <path class="st0" d="M120.46,42.89c-.43,1.51-1.06,2.05-2.17,2.05-.35,0-.73-.04-.99-.1l.07-1.32c.22.1.49.17.8.17.42,0,.73-.19.97-1.11l.35-1.35-2.79-8.99h1.53l1.98,7.22h.03l1.84-7.22h1.46l-3.07,10.65Z"/>
    <path class="st0" d="M124.54,39.37c.66.4,1.35.66,2.08.66,1.11,0,1.68-.57,1.68-1.25,0-.61-.31-1.02-1.13-1.39l-.97-.43c-1.27-.57-1.74-1.14-1.74-2.27,0-1.46,1.13-2.57,2.85-2.57.73,0,1.37.12,1.87.31l-.07,1.25c-.45-.21-1.08-.38-1.74-.38-.95,0-1.46.52-1.46,1.21s.52,1.11,1.49,1.49l.52.21c1.08.43,1.75,1.16,1.75,2.26,0,1.53-.82,2.74-2.84,2.74-.92,0-1.75-.19-2.4-.52l.09-1.32Z"/>
    <path class="st0" d="M135.42,40.98c-.35.12-.83.23-1.23.23-1.34,0-2.05-.54-2.05-2.1v-5.69h-1.41v-1.18h1.41v-1.8l1.46-.43v2.24h1.82v1.18h-1.82v5.22c0,1.01.26,1.39.92,1.39.36,0,.62-.1.9-.23v1.18Z"/>
    <path class="st0" d="M137.91,37.09c0,2.05.8,3,2.41,3,.73,0,1.53-.36,2.03-.73l.07,1.32c-.69.33-1.6.52-2.48.52-2.34,0-3.56-1.77-3.56-4.55s1.21-4.55,3.42-4.55c2,0,3.11,1.6,3.11,4.2v.78h-5ZM141.45,35.98c0-1.84-.57-2.76-1.74-2.76-.94,0-1.77.69-1.8,2.76h3.54Z"/>
    <path class="st0" d="M144.69,34.14c0-.64-.05-1.28-.07-1.91h1.41l.05,1.32h.03c.47-1.01,1.21-1.44,2.19-1.44s1.63.49,2.08,1.39c.47-.87,1.14-1.39,2.15-1.39,1.53,0,2.57.88,2.57,2.83v6.14h-1.46v-6.07c0-1.13-.49-1.65-1.35-1.65-1.07,0-1.67.66-1.67,2.26v5.47h-1.46v-6.07c0-1.13-.49-1.65-1.35-1.65-1.07,0-1.66.66-1.66,2.26v5.47h-1.46v-6.94Z"/>
    <path class="st0" d="M157.01,39.37c.66.4,1.35.66,2.08.66,1.11,0,1.68-.57,1.68-1.25,0-.61-.31-1.02-1.13-1.39l-.97-.43c-1.27-.57-1.73-1.14-1.73-2.27,0-1.46,1.13-2.57,2.84-2.57.73,0,1.37.12,1.87.31l-.07,1.25c-.45-.21-1.08-.38-1.74-.38-.96,0-1.46.52-1.46,1.21s.52,1.11,1.49,1.49l.52.21c1.08.43,1.75,1.16,1.75,2.26,0,1.53-.82,2.74-2.85,2.74-.92,0-1.75-.19-2.39-.52l.09-1.32Z"/>
    <path class="st0" d="M172.17,28.97l3.96,12.11h-1.6l-.97-3.16h-4.62l-.97,3.16h-1.53l4.06-12.11h1.66ZM173.16,36.61l-1.86-6.04h-.04l-1.91,6.04h3.8Z"/>
    <path class="st0" d="M177.49,34.14c0-.64-.05-1.28-.07-1.91h1.41l.05,1.32h.03c.47-1.01,1.21-1.44,2.24-1.44,1.54,0,2.59.88,2.59,2.83v6.14h-1.46v-5.71c0-1.41-.52-2.01-1.46-2.01-1.14,0-1.87.8-1.87,2.39v5.33h-1.46v-6.94Z"/>
    <path class="st0" d="M186.37,32.84c.73-.47,1.63-.73,2.5-.73,1.3,0,2.08.56,2.36.83.38.38.76.92.76,2.17v4.62c0,.52.03,1.04.07,1.35h-1.32l-.09-1.2h-.03c-.4.68-1.13,1.32-2.48,1.32-1.46,0-2.55-.85-2.55-2.55s1.13-2.98,4.16-2.98h.85v-.4c0-.66-.05-1.04-.33-1.42-.3-.4-.87-.56-1.48-.56-.9,0-1.77.36-2.27.92l-.16-1.37ZM190.61,36.75c-.26-.03-.63-.03-1.02-.03-1.72,0-2.53.81-2.53,1.84,0,.94.49,1.55,1.49,1.55,1.27,0,2.06-1.02,2.06-2.24v-1.11Z"/>
    <path class="st0" d="M194.37,28.07h1.46v13.01h-1.46v-13.01Z"/>
    <path class="st0" d="M201.03,42.89c-.43,1.51-1.06,2.05-2.17,2.05-.35,0-.73-.04-.99-.1l.07-1.32c.23.1.49.17.8.17.42,0,.73-.19.97-1.11l.35-1.35-2.79-8.99h1.53l1.98,7.22h.04l1.84-7.22h1.46l-3.07,10.65Z"/>
    <path class="st0" d="M205.11,39.37c.66.4,1.35.66,2.08.66,1.11,0,1.68-.57,1.68-1.25,0-.61-.31-1.02-1.13-1.39l-.97-.43c-1.27-.57-1.73-1.14-1.73-2.27,0-1.46,1.13-2.57,2.84-2.57.73,0,1.37.12,1.88.31l-.07,1.25c-.45-.21-1.08-.38-1.74-.38-.95,0-1.46.52-1.46,1.21s.52,1.11,1.49,1.49l.52.21c1.08.43,1.75,1.16,1.75,2.26,0,1.53-.82,2.74-2.85,2.74-.92,0-1.75-.19-2.39-.52l.09-1.32Z"/>
    <path class="st0" d="M213.74,28.59v1.74h-1.6v-1.74h1.6ZM212.22,32.23h1.46v8.85h-1.46v-8.85Z"/>
    <path class="st0" d="M215.72,39.37c.66.4,1.35.66,2.08.66,1.11,0,1.68-.57,1.68-1.25,0-.61-.31-1.02-1.13-1.39l-.97-.43c-1.27-.57-1.74-1.14-1.74-2.27,0-1.46,1.13-2.57,2.85-2.57.73,0,1.37.12,1.87.31l-.07,1.25c-.45-.21-1.08-.38-1.74-.38-.95,0-1.46.52-1.46,1.21s.52,1.11,1.49,1.49l.52.21c1.08.43,1.75,1.16,1.75,2.26,0,1.53-.82,2.74-2.84,2.74-.92,0-1.75-.19-2.39-.52l.09-1.32Z"/>
  </g>
  <g>
    <g>
      <path class="st0" d="M25.82,8.22c-6.76,0-12.63,3.82-15.59,9.41h31.17c-2.95-5.59-8.82-9.4-15.58-9.41Z"/>
      <path class="st0" d="M43.42,25.14c-.05-1.3-.23-2.56-.55-3.76l-32.64-3.75c-1.3,2.46-2.04,5.25-2.04,8.22,0,1.53.2,3.02.56,4.44l16.35,1.89v-7.04h18.3Z"/>
      <path class="st0" d="M10.23,34.07c2.85,5.39,8.42,9.12,14.88,9.37v-9.37h-14.88Z"/>
    </g>
    <g>
      <path class="st0" d="M41.41,34.06c1.19-2.26,1.9-4.8,2.01-7.51h-16.9v5.79l14.88,1.72h0Z"/>
      <path class="st0" d="M41.41,34.06h-14.88v9.38c6.46-.25,12.03-3.98,14.88-9.38Z"/>
    </g>
  </g>
  <polygon class="st0" points="2.02 44.44 .78 44.44 .78 .79 43.42 .79 43.42 2.03 2.02 2.03 2.02 44.44"/>
  <g>
    <path class="st0" d="M.83,50.46h1.24v12.17H.83v-12.17Z"/>
    <path class="st0" d="M10.88,50.46h1.24v12.17h-1.24v-12.17Z"/>
    <path class="st0" d="M20.92,50.38h1.28l1.8,12.24h-1.2l-.35-2.7h-1.79l-.38,2.7h-1.2l1.82-12.24ZM22.25,58.47l-.68-5.1h-.03l-.68,5.1h1.39Z"/>
    <path class="st0" d="M30.03,60.7c.35.42.72.67,1.08.67.52,0,.94-.53.94-1.19,0-1.88-2.08-4.61-2.08-7.1,0-1.64.81-2.79,1.96-2.79.35,0,.64.09,1.04.33v1.47c-.38-.27-.58-.38-.87-.38-.61,0-.94.38-.94,1.17,0,1.93,2.08,4.55,2.08,7.11,0,1.66-.81,2.81-1.99,2.81-.43,0-.81-.15-1.23-.47v-1.62Z"/>
    <path class="st0" d="M41.03,50.38h1.28l1.8,12.24h-1.2l-.35-2.7h-1.79l-.38,2.7h-1.2l1.82-12.24ZM42.36,58.47l-.68-5.1h-.03l-.68,5.1h1.39Z"/>
  </g>
</svg>